<svg xmlns="http://www.w3.org/2000/svg" stroke="null" style="vector-effect: non-scaling-stroke;" viewBox="211.5 23.09 377.01 551.18">

 <g stroke="null">
  <title stroke="null">Layer 1</title>
  <g stroke="null" id="svg_10">
   <text stroke="#000" font-style="normal" font-weight="normal" transform="matrix(13.5442 0 0 20.7239 -6156.41 -5336.38)" xml:space="preserve" text-anchor="start" font-family="'Montserrat Light'" font-size="24" id="svg_3" y="280" x="470.67008" stroke-width="0" fill="#ff6e00">J</text>
   <path stroke="#000" id="svg_6" d="m588.50367,346.24691l0,0c-55.72689,68.08901 -160.57879,68.20668 -211.30621,21.37054c-50.72742,-46.83614 -82.32636,-141.10412 -9.48338,-225.22345l0,0c-5.69899,62.86472 16.50956,123.46945 59.94255,163.57072s103.02065,55.01818 160.84704,40.28219z" stroke-width="0" fill="#ff6e00"/>
   <path stroke="#000" id="svg_7" d="m315.15326,286.92119c0.84704,0.50591 2.63961,-0.45227 3.51049,-0.57066c-0.98019,-1.14996 2.71183,-6.75235 1.43759,-8.78689c-0.39208,-4.59984 -10.31638,-14.98302 -11.56624,-16.18789c0.47676,-0.80801 5.81982,-0.05612 5.66032,0.0598c-2.22966,1.62091 7.52402,10.92341 8.65045,16.30501c2.07557,-0.10367 4.80191,-0.80547 6.01186,0.35383c1.12988,-1.11422 9.84801,-9.6276 10.32461,-16.98402c0.0683,-1.05421 4.80003,-0.38702 3.90994,0.25554c-1.42676,4.58017 -11.48814,17.43976 -12.27417,17.90795c0.91479,4.01007 0.54444,4.28493 6.38754,7.40305c2.62965,-5.57253 8.23265,-10.30279 13.36446,-15.01076c5.79465,-5.28613 9.68357,-10.3502 16.06672,-15.85309c8.40289,-6.99027 19.13433,-13.36862 28.96304,-17.17615c6.83741,-2.64873 18.2934,-4.91942 20.04959,-5.06803c3.25345,-0.28505 6.19558,-0.23445 10.05197,0.28264c5.6902,0.76294 11.24623,1.18902 17.22037,3.71978c5.61743,3.24805 3.67556,7.31884 2.62816,11.13189c-8.65178,8.6104 -17.51309,18.92253 -20.30389,29.47237c-0.93832,3.90639 -2.62542,10.63787 -6.60719,14.86625c-6.40135,6.5041 -14.23565,6.26356 -21.59649,7.14525c4.48511,1.15895 9.34968,4.94313 13.71388,8.74578c6.80793,5.98113 10.12521,12.11484 8.36714,18.79246c-0.37428,1.40062 -6.86549,12.02412 -10.04044,15.35752c-12.05069,12.69294 -28.45672,21.30107 -41.67964,19.904c-4.76176,-0.50308 -17.89631,-9.52584 -20.25778,-12.18823c-5.86224,-6.60919 -10.6774,-14.58113 -10.87532,-21.54118c-0.72871,-0.65707 -1.6199,-0.70562 -1.22696,-1.58468c-0.7302,2.01296 -3.04894,8.56837 -6.48172,12.71261c-4.96282,5.9914 -9.50573,-2.96484 -11.34456,-10.22799c-0.63038,-2.48979 -0.16773,-2.92083 -0.90295,-4.40962c-3.47654,1.19044 -1.64601,4.64216 -3.01036,7.43051c-1.1567,2.42815 -6.33689,9.84464 -7.76742,11.5354c-4.57278,5.4046 -14.84062,13.58304 -22.28717,15.54547c-6.91128,1.82139 -12.76889,1.56586 -18.32344,-1.00517c-7.1644,-3.31613 -17.26114,-11.01774 -23.47273,-17.27996c-7.86348,-7.74853 -14.73633,-19.39037 -8.19502,-27.59075c4.17514,-5.11658 12.03414,-12.74162 19.71389,-14.61531c-5.42116,-0.59918 -17.41539,-3.8236 -21.87596,-12.77962c-1.4317,-2.83952 -1.96281,-7.25444 -2.32697,-10.41326c-0.59251,-5.21508 -3.22914,-11.20676 -5.41786,-16.34181c-1.75948,-4.69467 -4.86927,-10.70489 -8.12381,-15.84114c-3.41075,-5.38995 -6.20703,-14.30245 -0.27132,-18.69119c2.07345,-1.5333 8.4937,-3.32165 9.83546,-3.44917c4.69025,-0.45199 11.0803,1.62664 15.82387,2.8737c3.10775,0.8238 16.74376,5.22046 20.51483,7.64132c24.86067,15.95946 42.53844,35.83911 54.02321,54.15446z" stroke-width="0" fill="#3f007f"/>
  </g>
 </g>
</svg>